#!OML:ASF E:\Mandelcareful walks\Project 1\Capture day 1\Session 1\Subject1.ASF
:FULLY-SPECIFIED
:DEGREES
2599
root 13.0886 16.6669 16.8298 1032.64 -79.7309 1131.68
lowerback -4.42474 -3.64754 -8.59751
upperback 0.833349 -4.36645 -1.20701
thorax 3.90331 -2.35515 3.18594
lowerneck -24.0228 2.39202 -1.60165
upperneck 34.6533 3.43418 0.40489
head 16.4646 0.988698 1.09235
rclavicle 1.35422e-014 -1.88845e-014
rhumerus -46.4084 -25.3811 -65.3079
rradius 18.3865
rwrist 10.5624
rhand -6.67105 -29.6692
rfingers 7.12502
rthumb 19.1872 -58.7427
lclavicle 1.35422e-014 -1.88845e-014
lhumerus -17.3514 -8.68748 85.7534
lradius 35.4355
lwrist 13.3827
lhand -24.5299 -13.1418
lfingers 7.12502
lthumb 1.96555 16.8289
rfemur -33.3483 -0.648033 9.3998
rtibia 22.5342
rfoot -21.6561 -15.2321
rtoes 9.21341
lfemur 19.9619 -1.01192 -28.8371
ltibia 1.59028e-014
lfoot -12.1 1.9061
ltoes -8.6421
2600
root 12.9304 16.6473 16.8154 1032.22 -79.5756 1132.12
lowerback -4.40294 -3.66776 -8.73809
upperback 0.892379 -4.38599 -1.13201
thorax 3.97282 -2.37261 3.33792
lowerneck -24.9732 2.61669 -0.831996
upperneck 35.2687 3.78152 -0.40802
head 17.0522 1.08529 0.69444
rclavicle -3.05383e-014 -1.59028e-014
rhumerus -46.0933 -25.9678 -64.9494
rradius 18.1777
rwrist 11.3576
rhand -6.90059 -29.5659
rfingers 7.12502
rthumb 18.9664 -58.6612
lclavicle -3.05383e-014 -1.59028e-014
lhumerus -17.6093 -8.42425 85.9823
lradius 35.5326
lwrist 13.2114
lhand -24.3145 -12.6927
lfingers 7.12502
lthumb 2.17366 17.276
rfemur -33.1577 -0.991779 9.48005
rtibia 22.5848
rfoot -20.9893 -15.0328
rtoes 9.63804
lfemur 20.4541 -0.921569 -28.7623
ltibia -1.90833e-014
lfoot -11.6604 1.49081
ltoes -9.74063
2601
root 12.7803 16.6272 16.7989 1031.87 -79.308 1132.48
lowerback -4.30739 -3.6748 -8.9122
upperback 0.963342 -4.39236 -1.145
thorax 4.00721 -2.38327 3.42252
lowerneck -24.5198 2.54511 -1.09785
upperneck 34.756 3.71138 -0.208521
head 16.6648 1.07419 0.804135
rclavicle -6.27166e-014 -3.24019e-014
rhumerus -45.8675 -26.6311 -64.704
rradius 18.0817
rwrist 12.0206
rhand -7.0499 -29.4235
rfingers 7.12502
rthumb 18.8228 -58.5328
lclavicle -6.27166e-014 -3.24019e-014
lhumerus -17.8931 -8.36492 86.1459
lradius 35.5297
lwrist 13.1586
lhand -24.2192 -12.7672
lfingers 7.12502
lthumb 2.26567 17.2005
rfemur -33.0193 -1.4147 9.49024
rtibia 22.8529
rfoot -19.4791 -15.1245
rtoes 8.22758
lfemur 20.8814 -0.913835 -28.7596
ltibia -3.49861e-014
lfoot -10.3676 1.08129
ltoes -7.32068
2602
root 12.6028 16.6071 16.7921 1032.71 -79.1894 1131.52
lowerback -4.24795 -3.71488 -8.65899
upperback 0.980692 -4.46516 -1.10771
thorax 3.98368 -2.41325 3.31805
lowerneck -24.2774 2.46491 -1.16395
upperneck 34.5543 3.64624 -0.290992
head 16.5065 1.03395 0.760223
rclavicle 5.33737e-014 2.18663e-014
rhumerus -45.7103 -26.7934 -64.6642
rradius 18.0478
rwrist 12.1147
rhand -7.25564 -29.8268
rfingers 7.12502
rthumb 18.6249 -58.9551
lclavicle 5.33737e-014 2.18663e-014
lhumerus -19.0183 -6.91668 86.3109
lradius 36.4709
lwrist 11.8998
lhand -23.8693 -12.8258
lfingers 7.12502
lthumb 2.60356 17.1381
rfemur -32.6618 -2.47644 9.96599
rtibia 23.3345
rfoot -17.464 -14.705
rtoes 6.35723
lfemur 21.644 -0.966614 -28.5177
ltibia 2.8625e-014
lfoot -9.4257 0.740196
ltoes -5.97499
2603
root 12.4211 16.5869 16.7859 1032.81 -78.8675 1131.18
lowerback -4.04847 -3.77759 -8.6506
upperback 0.989121 -4.57064 -1.06596
thorax 3.89591 -2.4631 3.3594
lowerneck -24.1982 2.39258 -1.25411
upperneck 34.5 3.6652 -0.522841
head 16.4663 0.994916 0.676118
rclavicle 3.76448e-014 7.55382e-015
rhumerus -45.4618 -26.4931 -64.8425
rradius 18.1512
rwrist 11.7684
rhand -7.40837 -30.1292
rfingers 7.12502
rthumb 18.478 -59.2716
lclavicle 3.76448e-014 7.55382e-015
lhumerus -19.6726 -6.65864 86.5884
lradius 36.5686
lwrist 12.0278
lhand -23.8088 -12.5252
lfingers 7.12502
lthumb 2.66205 17.4379
rfemur -32.1658 -3.47961 10.114
rtibia 23.9123
rfoot -17.1956 -13.9365
rtoes 9.48432
lfemur 22.5797 -1.05184 -28.5318
ltibia -3.18055e-015
lfoot -8.8585 0.601386
ltoes -6.7543
2604
root 12.2415 16.5775 16.78 1033.24 -78.7223 1130.62
lowerback -3.91633 -3.79744 -8.43297
upperback 0.996964 -4.62265 -0.982624
thorax 3.82488 -2.48236 3.33007
lowerneck -24.2739 2.35159 -1.29172
upperneck 34.4587 3.70049 -0.710017
head 16.4692 0.97722 0.609057
rclavicle 2.28851e-014 -6.36111e-015
rhumerus -45.1726 -25.9793 -65.2343
rradius 18.3954
rwrist 11.1014
rhand -7.66124 -29.9653
rfingers 7.12502
rthumb 18.2348 -59.1306
lclavicle 2.28851e-014 -6.36111e-015
lhumerus -20.1192 -6.77433 86.9636
lradius 36.2016
lwrist 12.496
lhand -23.7663 -12.524
lfingers 7.12502
lthumb 2.70304 17.4387
rfemur -31.8444 -4.26825 10.3733
rtibia 24.5872
rfoot -16.7779 -13.3921
rtoes 12.2901
lfemur 23.3011 -1.0739 -28.3557
ltibia 3.81667e-014
lfoot -8.02791 0.519494
ltoes -7.39683
2605
root 12.0642 16.5766 16.7661 1034.85 -78.8263 1128.94
lowerback -3.88879 -3.79716 -7.88792
upperback 1.02902 -4.65179 -0.876281
thorax 3.80961 -2.48533 3.13862
lowerneck -24.6245 2.25073 -1.27433
upperneck 34.4882 3.56461 -0.717152
head 16.5687 0.923217 0.580569
rclavicle 4.55217e-014 -5.96354e-015
rhumerus -44.8418 -25.498 -65.8295
rradius 18.7134
rwrist 10.2341
rhand -7.9978 -30.2746
rfingers 7.12502
rthumb 17.911 -59.4698
lclavicle 4.55217e-014 -5.96354e-015
lhumerus -20.5783 -6.72185 87.2494
lradius 35.6847
lwrist 12.5356
lhand -23.8258 -12.9743
lfingers 7.12502
lthumb 2.64563 16.989
rfemur -31.6575 -4.65832 10.9118
rtibia 25.24
rfoot -13.8118 -13.4485
rtoes 9.82911
lfemur 23.8589 -1.11695 -27.7671
ltibia 5.725e-014
lfoot -7.062 0.149577
ltoes -7.94216
2606
root 11.8846 16.5751 16.748 1036.91 -78.8358 1126.79
lowerback -3.90117 -3.90372 -7.42244
upperback 0.969283 -4.82061 -0.730633
thorax 3.74611 -2.55595 3.01968
lowerneck -24.0254 2.29325 -1.41304
upperneck 34.2724 3.72481 -0.882975
head 16.3204 0.951511 0.555052
rclavicle -1.24737e-014 -5.96354e-015
rhumerus -44.5985 -24.6977 -66.4778
rradius 19.1205
rwrist 9.20279
rhand -8.10407 -31.1934
rfingers 7.12502
rthumb 17.8087 -60.3979
lclavicle -1.24737e-014 -5.96354e-015
lhumerus -21.1741 -6.2515 87.4898
lradius 34.9127
lwrist 12.0709
lhand -23.9738 -13.3794
lfingers 7.12502
lthumb 2.50266 16.5856
rfemur -31.4435 -4.96665 11.3694
rtibia 25.8526
rfoot -11.788 -13.5041
rtoes 8.11155
lfemur 24.4748 -1.28449 -27.1649
ltibia -6.99722e-014
lfoot -6.08406 -0.0636622
ltoes -9.3113
2607
root 11.7018 16.5796 16.7326 1038.29 -78.9535 1125.33
lowerback -3.95941 -3.94109 -6.98605
upperback 0.894551 -4.89308 -0.556388
thorax 3.68616 -2.57985 2.95253
lowerneck -22.2827 2.15875 -2.24155
upperneck 33.2657 3.60408 -0.399002
head 15.3916 0.907878 0.849987
rclavicle 4.94228e-014 -3.97569e-015
rhumerus -44.3316 -24.0118 -66.9981
rradius 19.4259
rwrist 8.29955
rhand -8.11032 -31.9445
rfingers 7.12502
rthumb 17.8027 -61.1496
lclavicle 4.94228e-014 -3.97569e-015
lhumerus -21.6163 -5.93467 87.76
lradius 33.9064
lwrist 11.7414
lhand -23.9482 -13.3857
lfingers 7.12502
lthumb 2.52738 16.5791
rfemur -31.2399 -5.2194 11.8112
rtibia 26.4302
rfoot -11.3001 -13.4398
rtoes 9.62455
lfemur 25.0694 -1.27714 -26.5791
ltibia 6.67916e-014
lfoot -4.90113 -0.086916
ltoes -10.2966
2608
root 11.52 16.5839 16.7173 1038.58 -79.0863 1124.93
lowerback -3.85427 -3.81808 -6.60907
upperback 0.856824 -4.75857 -0.503399
thorax 3.54553 -2.50085 2.82121
lowerneck -23.1478 2.37931 -1.56654
upperneck 33.8311 3.81997 -0.719589
head 15.8868 1.01552 0.657019
rclavicle -2.35063e-014 2.18663e-014
rhumerus -44.0924 -24.148 -67.1258
rradius 19.371
rwrist 8.07186
rhand -8.0933 -31.892
rfingers 7.12502
rthumb 17.8191 -61.0957
lclavicle -2.35063e-014 2.18663e-014
lhumerus -21.8001 -6.07397 88.0263
lradius 32.7742
lwrist 11.8256
lhand -24.045 -13.3876
lfingers 7.12502
lthumb 2.43392 16.5782
rfemur -30.9617 -5.6108 12.1961
rtibia 26.9247
rfoot -10.2617 -13.0085
rtoes 10.5687
lfemur 25.6595 -1.12005 -26.1283
ltibia -6.36111e-015
lfoot -3.40549 -0.380386
ltoes -9.04468
2609
root 11.3407 16.5884 16.6962 1040.71 -79.3784 1122.69
lowerback -4.03811 -3.75557 -5.88132
upperback 1.06335 -4.69349 -0.365863
thorax 3.80834 -2.46429 2.54618
lowerneck -22.5992 2.01911 -2.44056
upperneck 33.401 3.38683 -0.0990826
head 15.5179 0.833482 0.975566
rclavicle 5.3324e-014 -2.38542e-015
rhumerus -43.4598 -24.5929 -67.2952
rradius 19.2133
rwrist 8.14748
rhand -7.98047 -31.2483
rfingers 7.12502
rthumb 17.9276 -60.442
lclavicle 5.3324e-014 -2.38542e-015
lhumerus -21.4142 -5.85687 88.1642
lradius 31.3151
lwrist 11.6086
lhand -24.0435 -13.5801
lfingers 7.12502
lthumb 2.43537 16.3857
rfemur -30.556 -5.90123 12.9769
rtibia 27.4029
rfoot -9.46221 -12.4926
rtoes 11.2407
lfemur 22.4288 -0.968226 -25.2139
ltibia 7.62299
lfoot -5.36641 -1.66387
ltoes -7.99496
